<?xml version="1.0" encoding="UTF-8"?>
<svg xmlns="http://www.w3.org/2000/svg" xmlns:xlink="http://www.w3.org/1999/xlink" version="1.2" >
<font id="Franklin Gothic Con MedConSC">
<font-face  font-family="Franklin Gothic Con" units-per-em="1000" ascent="750" descent="-250" font-style="normal" font-weight="400" font-stretch="normal" cap-height="750" x-height="500" underline-position="-172" underline-thickness="20" />
<missing-glyph  horiz-adv-x="1000" d="" />
<glyph glyph-name="NULL" d="" />
<glyph glyph-name="CR" unicode="&#xd;" horiz-adv-x="250" d="" />
<glyph glyph-name="space" unicode="&#x20;" horiz-adv-x="250" d="" />
<glyph glyph-name="exclam" unicode="&#x21;" horiz-adv-x="341" d="M238 667 L103 667 L137 179 L204 179 L238 667 L238 667 Z M226 0 L226 123 L115 123 L115 0 L226 0 L226 0 Z " />
<glyph glyph-name="quotedbl" unicode="&#x22;" horiz-adv-x="359" d="M310 667 L207 667 L224 399 L293 399 L310 667 L310 667 Z M152 667 L49 667 L66 399 L134 399 L152 667 L152 667 Z " />
<glyph glyph-name="numbersign" unicode="&#x23;" horiz-adv-x="600" d="M587 482 L482 482 L511 667 L415 667 L386 482 L269 482 L298 667 L204 667 L175 482 L67 482 L54 398 L162 398 L144 282 L36 282 L23 198 L131 198 L100 0 L195 0 L226 198 L342 198 L311 0 L407 0 L438 198 L545 198 L558 282 L451 282 L469 398 L574 398 L587 482 L587 482 Z M373 398 L356 282 L239 282 L256 398 L373 398 L373 398 Z " />
<glyph glyph-name="dollar" unicode="&#x24;" horiz-adv-x="511" d="M465 206 C465 268 440 317 393 347 C359 369 345 375 286 392 L286 576 C317 567 329 560 343 544 C356 529 360 521 373 487 L452 520 C436 570 424 588 396 613 C365 639 343 647 289 654 L289 720 L228 720 L228 654 C183 648 167 642 140 623 C97 591 70 536 70 478 C70 421 95 371 141 340 C169 321 184 314 231 300 L231 101 C197 109 184 117 166 138 C149 158 142 172 133 209 L45 180 C64 114 79 89 117 60 C150 34 171 26 228 19 L228 -66 L289 -66 L289 19 C402 32 465 100 465 206 L465 206 Z M231 409 C184 424 164 449 164 491 C164 535 185 561 231 574 L231 409 L231 409 Z M371 192 C371 141 341 109 286 101 L286 284 C345 269 371 241 371 192 L371 192 Z " />
<glyph glyph-name="percent" unicode="&#x25;" horiz-adv-x="681" d="M537 667 L471 667 L146 0 L212 0 L537 667 L537 667 Z M305 500 C305 607 255 673 174 673 C92 672 42 607 42 500 C42 393 92 328 174 328 C255 328 305 393 305 500 L305 500 Z M639 167 C639 273 589 339 508 339 C426 339 376 273 376 166 C376 59 426 -6 508 -6 C589 -6 639 60 639 167 L639 167 Z M561 166 C561 90 544 55 507 55 C471 55 454 90 454 165 C454 243 471 278 507 278 C544 278 561 243 561 166 L561 166 Z M227 500 C227 423 211 389 174 389 C137 389 120 424 120 500 C120 576 137 611 174 611 C211 611 227 577 227 500 L227 500 Z " />
<glyph glyph-name="ampersand" unicode="&#x26;" horiz-adv-x="511" d="M477 2 L477 78 C461 73 457 73 447 73 C431 73 421 79 402 100 C422 129 429 141 442 173 C455 205 460 223 470 272 L394 288 C389 256 386 244 377 218 C370 198 366 188 354 163 L278 271 C336 304 367 349 367 401 C367 469 319 515 247 515 C175 515 120 465 120 401 C120 369 132 337 162 290 C91 257 54 207 54 142 C54 53 120 -9 214 -9 C263 -9 299 4 342 39 C373 5 395 -7 427 -7 C444 -7 451 -6 477 2 L477 2 Z M287 401 C287 372 268 344 237 326 C219 354 208 382 208 402 C208 429 224 447 249 447 C271 447 287 429 287 401 L287 401 Z M298 97 C277 75 253 65 225 65 C182 65 154 97 154 146 C154 182 169 209 202 233 L298 97 L298 97 Z " />
<glyph glyph-name="quotesingle" unicode="&#x27;" horiz-adv-x="200" d="M152 667 L49 667 L66 399 L134 399 L152 667 L152 667 Z " />
<glyph glyph-name="parenleft" unicode="&#x28;" horiz-adv-x="324" d="M269 -167 C230 -103 218 -76 195 -5 C167 84 155 162 155 250 C155 337 167 415 195 504 C218 576 230 602 269 667 L188 667 C144 603 129 577 105 516 C71 431 53 340 53 250 C53 159 71 69 105 -16 C129 -77 144 -104 188 -167 L269 -167 L269 -167 Z " />
<glyph glyph-name="parenright" unicode="&#x29;" horiz-adv-x="324" d="M271 250 C271 340 253 432 219 516 C195 576 180 603 136 667 L55 667 C94 602 106 575 128 504 C156 416 169 336 169 250 C169 163 156 84 128 -5 C106 -76 94 -103 55 -167 L136 -167 C180 -103 195 -77 219 -16 C253 68 271 160 271 250 L271 250 Z " />
<glyph glyph-name="asterisk" unicode="&#x2a;" horiz-adv-x="511" d="M425 438 L310 489 L425 541 L391 608 L281 535 L292 667 L219 667 L230 535 L120 608 L86 541 L201 489 L86 438 L120 371 L230 444 L219 312 L292 312 L281 444 L391 371 L425 438 L425 438 Z " />
<glyph glyph-name="plus" unicode="&#x2b;" horiz-adv-x="500" d="M467 292 L467 379 L297 379 L297 543 L203 543 L203 379 L33 379 L33 292 L203 292 L203 128 L297 128 L297 292 L467 292 L467 292 Z " />
<glyph glyph-name="comma" unicode="&#x2c;" horiz-adv-x="239" d="M180 6 L180 126 L68 126 L68 0 L120 0 L59 -141 L107 -141 L180 6 L180 6 Z " />
<glyph glyph-name="hyphen" unicode="&#x2d;" horiz-adv-x="211" d="M211 209 L211 291 L0 291 L0 209 L211 209 L211 209 Z " />
<glyph glyph-name="period" unicode="&#x2e;" horiz-adv-x="239" d="M175 0 L175 126 L64 126 L64 0 L175 0 L175 0 Z " />
<glyph glyph-name="slash" unicode="&#x2f;" horiz-adv-x="477" d="M429 667 L353 667 L-15 -167 L61 -167 L429 667 L429 667 Z " />
<glyph glyph-name="zero" unicode="0" horiz-adv-x="494" d="M458 242 C458 411 382 505 247 505 C114 505 37 410 37 246 C37 83 114 -12 247 -12 C379 -12 458 83 458 242 L458 242 Z M346 246 C346 129 312 68 247 68 C182 68 148 128 148 246 C148 364 182 425 247 425 C312 425 346 363 346 246 L346 246 Z " />
<glyph glyph-name="one" unicode="1" horiz-adv-x="375" d="M357 0 L357 82 L260 82 L260 500 L184 500 C159 467 148 455 121 431 C94 408 82 399 49 380 L49 277 C71 289 79 295 96 307 C122 327 133 337 157 365 L157 82 L53 82 L53 0 L357 0 L357 0 Z " />
<glyph glyph-name="two" unicode="2" horiz-adv-x="460" d="M420 93 L165 93 C253 141 308 177 350 212 C394 250 418 299 418 353 C418 447 346 510 239 510 C187 510 141 494 104 463 C66 432 51 408 31 344 L122 324 C139 388 175 421 225 421 C272 421 304 389 304 343 C304 311 287 278 254 246 C215 208 167 172 83 116 C71 108 54 97 31 82 L31 0 L415 0 L420 93 L420 93 Z " />
<glyph glyph-name="three" unicode="3" horiz-adv-x="460" d="M428 17 C428 103 387 158 305 180 C345 199 361 210 378 231 C399 258 410 289 410 328 C410 437 336 505 219 505 C113 505 44 451 14 344 L104 323 C124 392 156 422 209 422 C265 422 300 381 300 318 C300 273 280 238 246 225 C227 217 219 216 177 216 L135 216 L135 135 L177 135 C271 135 313 100 313 23 C313 -47 272 -93 208 -93 C175 -93 142 -78 122 -54 C105 -33 99 -19 91 21 L-4 -1 C7 -59 17 -81 44 -112 C82 -154 144 -179 213 -179 C342 -179 428 -101 428 17 L428 17 Z " />
<glyph glyph-name="four" unicode="4" horiz-adv-x="494" d="M477 0 L477 84 L394 84 L394 500 L265 500 L21 79 L21 0 L288 0 L288 -167 L394 -167 L394 0 L477 0 L477 0 Z M293 81 L112 81 L293 411 L293 81 L293 81 Z " />
<glyph glyph-name="five" unicode="5" horiz-adv-x="477" d="M455 53 C455 190 386 276 276 276 C245 276 218 269 196 255 C180 245 171 237 153 215 L163 400 L410 400 L421 493 L80 493 L59 130 L142 113 C166 164 196 185 246 185 C312 185 349 137 349 48 C349 -41 312 -89 243 -89 C180 -89 149 -60 130 15 L32 -9 C56 -120 128 -179 241 -179 C374 -179 455 -91 455 53 L455 53 Z " />
<glyph glyph-name="six" unicode="6" horiz-adv-x="511" d="M473 213 C473 340 398 430 291 430 C251 430 217 417 190 392 C173 376 165 364 149 331 C155 517 191 593 275 593 C327 593 358 561 376 488 L468 517 C450 583 436 609 398 639 C365 665 323 679 276 679 C132 679 47 546 47 322 C47 105 125 -12 268 -12 C393 -12 473 76 473 213 L473 213 Z M366 210 C366 121 332 73 268 73 C204 73 161 127 161 209 C161 291 203 344 269 344 C331 344 366 296 366 210 L366 210 Z " />
<glyph glyph-name="seven" unicode="7" horiz-adv-x="409" d="M400 415 L400 493 L24 493 L15 400 L302 400 C247 327 229 297 197 232 C169 174 145 109 128 41 C108 -43 103 -78 102 -167 L218 -167 C218 -86 222 -55 235 18 C246 77 261 136 282 194 C317 292 337 329 400 415 L400 415 Z " />
<glyph glyph-name="eight" unicode="8" horiz-adv-x="511" d="M477 183 C477 262 439 317 353 360 C427 399 457 442 457 509 C457 613 381 679 262 679 C138 679 56 606 56 496 C56 453 71 415 98 385 C113 368 125 359 158 339 C115 318 101 309 79 287 C49 257 34 216 34 170 C34 56 115 -12 250 -12 C387 -12 477 66 477 183 L477 183 Z M361 507 C361 481 351 455 333 438 C316 421 307 415 270 395 C193 426 162 459 162 511 C162 565 203 602 261 602 C320 602 361 563 361 507 L361 507 Z M371 166 C371 108 323 67 254 67 C181 67 133 111 133 176 C133 231 161 264 237 298 C290 276 304 269 329 250 C343 239 354 226 361 211 C368 198 371 182 371 166 L371 166 Z " />
<glyph glyph-name="nine" unicode="9" horiz-adv-x="494" d="M455 183 C455 399 384 505 240 505 C114 505 31 417 31 284 C31 158 108 66 214 66 C249 66 282 77 306 96 C323 110 332 122 350 154 C349 103 347 86 344 61 C341 37 336 13 329 -9 C310 -66 279 -94 232 -94 C181 -94 155 -70 137 -6 L42 -34 C63 -93 75 -115 104 -140 C135 -166 175 -179 224 -179 C375 -179 455 -54 455 183 L455 183 Z M341 290 C341 210 301 157 239 157 C176 157 138 207 138 288 C138 369 177 420 240 420 C300 420 341 367 341 290 L341 290 Z " />
<glyph glyph-name="colon" unicode="&#x3a;" horiz-adv-x="239" d="M175 367 L175 493 L64 493 L64 367 L175 367 L175 367 Z M175 0 L175 126 L64 126 L64 0 L175 0 L175 0 Z " />
<glyph glyph-name="semicolon" unicode="&#x3b;" horiz-adv-x="239" d="M180 367 L180 493 L68 493 L68 367 L180 367 L180 367 Z M180 6 L180 126 L68 126 L68 0 L120 0 L59 -141 L107 -141 L180 6 L180 6 Z " />
<glyph glyph-name="less" unicode="&#x3c;" horiz-adv-x="500" d="M467 82 L466 175 L133 331 L467 488 L467 581 L33 371 L33 292 L467 82 L467 82 Z " />
<glyph glyph-name="equal" unicode="&#x3d;" horiz-adv-x="500" d="M467 380 L467 462 L33 462 L33 380 L467 380 L467 380 Z M467 220 L467 302 L33 302 L33 220 L467 220 L467 220 Z " />
<glyph glyph-name="greater" unicode="&#x3e;" horiz-adv-x="500" d="M467 292 L467 371 L33 581 L34 488 L367 332 L33 175 L33 82 L467 292 L467 292 Z " />
<glyph glyph-name="question" unicode="&#x3f;" horiz-adv-x="494" d="M431 496 C431 608 357 679 240 679 C119 679 50 608 38 472 L133 453 C140 548 171 591 235 591 C288 591 320 557 320 498 C320 450 303 416 260 379 L226 350 C198 326 180 292 178 254 C177 240 176 221 176 198 C176 194 176 187 176 178 L268 178 C268 191 268 200 268 204 C268 254 277 272 331 316 C386 361 408 389 421 430 C428 451 431 473 431 496 L431 496 Z M276 0 L276 120 L168 120 L168 0 L276 0 L276 0 Z " />
<glyph glyph-name="at" unicode="&#x40;" horiz-adv-x="596" d="M589 384 C589 568 484 684 317 684 C133 684 7 539 7 327 C7 119 132 -16 324 -16 C394 -16 454 1 528 42 L506 95 C442 57 393 43 327 43 C177 43 80 156 80 328 C80 503 177 625 315 625 C443 625 522 531 522 379 C522 276 486 200 437 200 C419 200 412 210 412 234 C412 247 414 269 418 300 L447 507 L389 507 L381 453 C363 497 340 514 301 514 C221 514 160 420 160 295 C160 197 202 134 268 134 C307 134 332 151 355 193 C366 151 385 136 427 136 C521 136 589 241 589 384 L589 384 Z M351 356 C351 268 324 207 283 207 C254 207 237 241 237 297 C237 382 266 441 307 441 C335 441 351 410 351 356 L351 356 Z " />
<glyph glyph-name="A" unicode="A" horiz-adv-x="494" d="M491 0 L313 667 L189 667 L-4 0 L101 0 L143 167 L337 167 L379 0 L491 0 L491 0 Z M315 254 L164 254 L240 559 L315 254 L315 254 Z " />
<glyph glyph-name="B" unicode="B" horiz-adv-x="545" d="M496 184 C496 235 480 279 450 310 C429 331 415 339 376 351 C446 378 476 422 476 497 C476 560 449 617 408 641 C373 662 349 667 266 667 L64 667 L64 0 L269 0 C346 0 383 8 420 32 C469 64 496 119 496 184 L496 184 Z M362 487 C362 418 327 390 242 390 L172 390 L172 581 L253 581 C329 581 362 553 362 487 L362 487 Z M383 195 C383 125 341 88 261 88 L172 88 L172 305 L252 305 C299 305 322 299 343 284 C369 265 383 234 383 195 L383 195 Z " />
<glyph glyph-name="C" unicode="C" horiz-adv-x="528" d="M502 451 C480 604 410 679 285 679 C129 679 42 554 42 334 C42 111 127 -12 283 -12 C408 -12 480 62 501 210 L399 224 C382 119 351 79 288 79 C202 79 159 162 159 328 C159 503 200 588 287 588 C333 588 369 560 384 512 C392 488 393 477 399 436 L502 451 L502 451 Z " />
<glyph glyph-name="D" unicode="D" horiz-adv-x="562" d="M520 339 C520 496 457 609 348 647 C309 661 267 667 214 667 L64 667 L64 0 L222 0 C322 0 387 25 436 82 C492 146 520 233 520 339 L520 339 Z M404 334 C404 172 342 88 221 88 L175 88 L175 578 L221 578 C341 578 404 495 404 334 L404 334 Z " />
<glyph glyph-name="E" unicode="E" horiz-adv-x="460" d="M450 0 L450 90 L174 90 L174 299 L387 299 L387 387 L174 387 L174 578 L446 578 L446 667 L64 667 L64 0 L450 0 L450 0 Z " />
<glyph glyph-name="F" unicode="F" horiz-adv-x="426" d="M434 578 L434 667 L64 667 L64 0 L174 0 L174 290 L383 290 L383 379 L174 379 L174 578 L434 578 L434 578 Z " />
<glyph glyph-name="G" unicode="G" horiz-adv-x="562" d="M513 -5 L513 342 L291 342 L291 253 L410 253 C410 135 373 79 295 79 C204 79 159 163 159 333 C159 505 202 588 293 588 C341 588 376 562 393 514 C400 494 402 486 410 451 L510 475 C483 618 417 679 292 679 C132 679 42 552 42 329 C42 116 131 -12 280 -12 C353 -12 402 16 440 80 L455 -5 L513 -5 L513 -5 Z " />
<glyph glyph-name="H" unicode="H" horiz-adv-x="545" d="M481 0 L481 667 L371 667 L371 390 L174 390 L174 667 L64 667 L64 0 L174 0 L174 297 L371 297 L371 0 L481 0 L481 0 Z " />
<glyph glyph-name="I" unicode="I" horiz-adv-x="239" d="M174 0 L174 667 L64 667 L64 0 L174 0 L174 0 Z " />
<glyph glyph-name="J" unicode="J" horiz-adv-x="307" d="M245 252 L245 667 L135 667 L135 252 C135 166 132 137 120 114 C108 92 86 82 49 82 C26 82 12 84 -16 92 L-16 0 C30 -10 43 -12 70 -12 C147 -12 199 14 221 65 C241 109 245 144 245 252 L245 252 Z " />
<glyph glyph-name="K" unicode="K" horiz-adv-x="511" d="M521 0 L321 422 L492 667 L376 667 L174 349 L174 667 L64 667 L64 0 L174 0 L174 219 L253 330 L402 0 L521 0 L521 0 Z " />
<glyph glyph-name="L" unicode="L" horiz-adv-x="409" d="M410 0 L410 93 L174 93 L174 667 L64 667 L64 0 L410 0 L410 0 Z " />
<glyph glyph-name="M" unicode="M" horiz-adv-x="716" d="M651 0 L651 667 L494 667 L358 186 L225 667 L62 667 L62 0 L154 0 L154 569 L309 0 L389 0 L548 569 L548 0 L651 0 L651 0 Z " />
<glyph glyph-name="N" unicode="N" horiz-adv-x="562" d="M502 0 L502 667 L410 667 L410 186 L190 667 L60 667 L60 0 L153 0 L153 534 L399 0 L502 0 L502 0 Z " />
<glyph glyph-name="O" unicode="O" horiz-adv-x="562" d="M521 333 C521 559 438 679 283 679 C125 679 42 559 42 333 C42 108 125 -12 283 -12 C438 -12 521 108 521 333 L521 333 Z M405 333 C405 160 366 78 282 78 C196 78 157 158 157 333 C157 508 197 588 281 588 C366 588 405 507 405 333 L405 333 Z " />
<glyph glyph-name="P" unicode="P" horiz-adv-x="494" d="M474 464 C474 522 455 576 421 611 C380 653 333 667 229 667 L64 667 L64 0 L174 0 L174 260 L232 260 C301 260 325 263 361 276 C389 287 413 303 431 325 C458 358 474 410 474 464 L474 464 Z M359 465 C359 412 338 372 305 359 C287 352 264 349 229 349 L174 349 L174 581 L229 581 C280 581 289 580 307 571 C318 565 327 557 335 546 C350 525 359 497 359 465 L359 465 Z " />
<glyph glyph-name="Q" unicode="Q" horiz-adv-x="562" d="M521 334 C521 559 438 679 282 679 C125 679 42 559 42 333 C42 106 123 -10 282 -11 C285 -109 327 -154 419 -154 C445 -154 457 -152 484 -142 L484 -58 C463 -65 451 -67 434 -67 C386 -67 368 -49 368 0 L368 5 C408 24 424 34 440 51 C493 109 521 204 521 334 L521 334 Z M404 333 C404 159 365 78 281 79 C197 80 158 159 158 333 C158 508 197 588 281 588 C365 588 404 507 404 333 L404 333 Z " />
<glyph glyph-name="R" unicode="R" horiz-adv-x="528" d="M502 0 L375 301 C445 339 477 394 477 477 C477 560 438 626 375 650 C345 662 312 667 265 667 L64 667 L64 0 L174 0 L174 278 L278 278 L382 0 L502 0 L502 0 Z M369 478 C369 404 330 364 259 364 L174 364 L174 581 L260 581 C332 581 369 546 369 478 L369 478 Z " />
<glyph glyph-name="S" unicode="S" horiz-adv-x="511" d="M478 190 C478 244 456 294 418 326 C388 352 359 367 291 393 C223 419 205 428 185 445 C168 460 158 481 158 504 C158 553 196 588 249 588 C309 588 342 559 367 485 L461 518 C443 576 431 598 400 627 C363 661 315 679 255 679 C134 679 51 602 51 491 C51 437 73 387 111 355 C146 325 155 321 252 284 C318 259 344 241 357 211 C362 200 365 188 365 175 C365 117 322 79 257 79 C183 79 140 119 122 202 L23 174 C53 50 129 -12 254 -12 C386 -12 478 71 478 190 L478 190 Z " />
<glyph glyph-name="T" unicode="T" horiz-adv-x="375" d="M391 573 L391 667 L-16 667 L-16 573 L131 573 L131 0 L242 0 L242 573 L391 573 L391 573 Z " />
<glyph glyph-name="U" unicode="U" horiz-adv-x="545" d="M486 260 L486 667 L387 667 L387 255 C387 193 386 176 380 151 C376 133 367 116 355 104 C337 87 314 79 281 79 C221 79 186 103 175 150 C169 174 167 198 167 253 L167 667 L59 667 L59 253 C59 117 78 58 135 22 C171 -1 216 -12 272 -12 C374 -12 445 29 469 102 C483 142 486 175 486 260 L486 260 Z " />
<glyph glyph-name="V" unicode="V" horiz-adv-x="460" d="M463 667 L366 667 L239 135 L112 667 L-4 667 L168 0 L288 -1 L463 667 L463 667 Z " />
<glyph glyph-name="W" unicode="W" horiz-adv-x="698" d="M696 667 L603 667 L508 167 L405 667 L309 667 L205 167 L114 667 L2 667 L146 -1 L247 -1 L351 488 L456 -1 L556 -1 L696 667 L696 667 Z " />
<glyph glyph-name="X" unicode="X" horiz-adv-x="443" d="M456 0 L281 364 L436 667 L333 667 L226 454 L131 667 L8 667 L165 345 L-14 0 L91 0 L219 255 L333 0 L456 0 L456 0 Z " />
<glyph glyph-name="Y" unicode="Y" horiz-adv-x="409" d="M440 667 L335 667 L211 389 L88 667 L-32 667 L145 282 L145 0 L256 0 L256 282 L440 667 L440 667 Z " />
<glyph glyph-name="Z" unicode="Z" horiz-adv-x="426" d="M426 0 L426 93 L123 93 L419 590 L419 667 L19 667 L19 576 L293 576 L1 85 L1 0 L426 0 L426 0 Z " />
<glyph glyph-name="bracketleft" unicode="&#x5b;" horiz-adv-x="324" d="M252 -167 L252 -111 L174 -111 L174 610 L252 610 L252 667 L79 667 L79 -167 L252 -167 L252 -167 Z " />
<glyph glyph-name="backslash" unicode="&#x5c;" horiz-adv-x="500" d="M455 -83 L118 750 L26 750 L364 -83 L455 -83 L455 -83 Z " />
<glyph glyph-name="bracketright" unicode="&#x5d;" horiz-adv-x="324" d="M244 -167 L244 667 L71 667 L71 610 L150 610 L150 -111 L71 -111 L71 -167 L244 -167 L244 -167 Z " />
<glyph glyph-name="asciicircum" unicode="&#x5e;" horiz-adv-x="500" d="M482 354 L311 669 L189 669 L18 354 L117 354 L250 595 L383 354 L482 354 L482 354 Z " />
<glyph glyph-name="underscore" unicode="&#x5f;" horiz-adv-x="500" d="M500 -143 L500 -59 L0 -59 L0 -143 L500 -143 L500 -143 Z " />
<glyph glyph-name="grave" unicode="&#x60;" horiz-adv-x="500" d="M325 590 L169 727 L116 660 L288 552 L325 590 L325 590 Z " />
<glyph glyph-name="a" unicode="a" horiz-adv-x="409" d="M402 0 L263 505 L154 505 L4 0 L99 0 L131 123 L268 123 L300 0 L402 0 L402 0 Z M252 200 L150 200 L201 401 L252 200 L252 200 Z " />
<glyph glyph-name="b" unicode="b" horiz-adv-x="443" d="M404 142 C404 203 375 248 324 267 C362 289 375 304 383 334 C386 347 388 360 388 373 C388 421 366 466 333 486 C305 502 287 505 222 505 L60 505 L60 0 L224 0 C283 0 312 6 342 24 C382 47 404 90 404 142 L404 142 Z M285 366 C285 319 263 301 206 301 L160 301 L160 429 L214 429 C264 429 285 411 285 366 L285 366 Z M300 150 C300 101 274 76 220 76 L160 76 L160 226 L214 226 C274 226 300 203 300 150 L300 150 Z " />
<glyph glyph-name="c" unicode="c" horiz-adv-x="443" d="M422 167 L327 179 C315 103 291 70 244 70 C184 70 149 137 149 253 C149 370 184 435 247 435 C293 435 317 400 325 322 L421 334 C404 457 348 515 246 515 C116 515 41 419 41 253 C41 87 114 -9 241 -9 C345 -9 405 49 422 167 L422 167 Z " />
<glyph glyph-name="d" unicode="d" horiz-adv-x="477" d="M436 257 C436 420 351 505 189 505 L60 505 L60 0 L195 0 C275 0 328 19 368 61 C412 108 436 176 436 257 L436 257 Z M328 253 C328 136 283 76 194 76 L162 76 L162 429 L194 429 C282 429 328 369 328 253 L328 253 Z " />
<glyph glyph-name="e" unicode="e" horiz-adv-x="392" d="M366 0 L366 76 L162 76 L162 221 L319 221 L319 298 L162 298 L162 429 L363 429 L363 505 L60 505 L60 0 L366 0 L366 0 Z " />
<glyph glyph-name="f" unicode="f" horiz-adv-x="358" d="M355 429 L355 505 L60 505 L60 0 L162 0 L162 214 L315 214 L315 291 L162 291 L162 429 L355 429 L355 429 Z " />
<glyph glyph-name="g" unicode="g" horiz-adv-x="477" d="M428 -3 L428 264 L245 264 L245 187 L336 187 C335 107 309 68 256 68 C185 68 149 130 149 252 C149 375 184 437 254 437 C301 437 323 409 337 331 L426 352 C405 466 353 515 252 515 C119 515 41 417 41 249 C41 88 117 -9 242 -9 C258 -9 273 -8 288 -4 C319 3 333 14 361 47 L370 -3 L428 -3 L428 -3 Z " />
<glyph glyph-name="h" unicode="h" horiz-adv-x="460" d="M400 0 L400 505 L298 505 L298 301 L162 301 L162 505 L60 505 L60 0 L162 0 L162 220 L298 220 L298 0 L400 0 L400 0 Z " />
<glyph glyph-name="i" unicode="i" horiz-adv-x="221" d="M162 0 L162 505 L60 505 L60 0 L162 0 L162 0 Z " />
<glyph glyph-name="j" unicode="j" horiz-adv-x="255" d="M203 192 L203 505 L101 505 L101 192 C101 129 99 111 90 94 C83 79 69 73 45 73 C27 73 15 75 -10 82 L-10 1 C32 -8 40 -9 60 -9 C119 -9 164 13 183 51 C199 84 203 111 203 192 L203 192 Z " />
<glyph glyph-name="k" unicode="k" horiz-adv-x="426" d="M433 0 L274 318 L413 505 L304 505 L162 283 L162 505 L60 505 L60 0 L162 0 L162 166 L213 237 L321 0 L433 0 L433 0 Z " />
<glyph glyph-name="l" unicode="l" horiz-adv-x="324" d="M337 0 L337 81 L162 81 L162 505 L60 505 L60 0 L337 0 L337 0 Z " />
<glyph glyph-name="m" unicode="m" horiz-adv-x="579" d="M520 0 L520 505 L377 505 L287 157 L202 505 L56 505 L56 0 L141 0 L141 404 L245 0 L318 0 L426 406 L426 0 L520 0 L520 0 Z " />
<glyph glyph-name="n" unicode="n" horiz-adv-x="460" d="M408 0 L408 505 L321 505 L321 172 L169 505 L52 505 L52 0 L139 0 L139 373 L312 0 L408 0 L408 0 Z " />
<glyph glyph-name="o" unicode="o" horiz-adv-x="477" d="M435 253 C435 423 367 515 239 515 C111 515 41 423 41 252 C41 82 111 -9 239 -9 C367 -9 435 82 435 253 L435 253 Z M328 253 C328 128 299 68 240 68 C177 68 149 126 149 253 C149 378 178 437 238 437 C299 437 328 378 328 253 L328 253 Z " />
<glyph glyph-name="p" unicode="p" horiz-adv-x="409" d="M390 348 C390 393 374 435 347 463 C315 495 277 505 197 505 L60 505 L60 0 L162 0 L162 193 L199 193 C250 193 271 195 299 205 C321 212 340 225 355 242 C377 268 390 308 390 348 L390 348 Z M282 350 C282 313 270 286 249 278 C236 273 221 270 197 270 L162 270 L162 429 L197 429 C230 429 238 428 249 422 C256 418 263 412 267 405 C277 391 282 372 282 350 L282 350 Z " />
<glyph glyph-name="q" unicode="q" horiz-adv-x="460" d="M419 254 C419 423 353 515 231 515 C108 514 41 423 41 253 C41 85 105 -6 224 -8 C228 -79 264 -114 333 -114 C355 -114 366 -112 391 -103 L391 -28 C369 -35 359 -37 345 -37 C313 -37 304 -26 303 6 C332 20 343 27 355 39 C397 83 419 155 419 254 L419 254 Z M311 254 C311 128 285 71 230 71 C175 71 149 128 149 254 C149 379 175 437 230 437 C285 437 311 380 311 254 L311 254 Z " />
<glyph glyph-name="r" unicode="r" horiz-adv-x="443" d="M419 0 L319 226 C371 255 396 298 396 358 C396 455 337 505 221 505 L60 505 L60 0 L160 0 L160 205 L232 205 L309 0 L419 0 L419 0 Z M293 360 C293 309 266 282 217 282 L160 282 L160 429 L218 429 C268 429 293 406 293 360 L293 360 Z " />
<glyph glyph-name="s" unicode="s" horiz-adv-x="426" d="M393 147 C393 187 375 227 346 251 C323 270 297 284 249 302 C195 322 185 327 171 340 C159 350 153 363 153 379 C153 412 178 435 215 435 C258 435 278 415 298 357 L382 385 C367 433 356 452 330 475 C300 501 261 515 213 515 C115 515 45 454 45 370 C45 329 64 289 94 265 C121 243 133 237 204 211 C265 189 285 170 285 135 C285 95 256 71 209 71 C155 71 125 99 112 164 L24 139 C48 39 109 -9 212 -9 C318 -9 393 55 393 147 L393 147 Z " />
<glyph glyph-name="t" unicode="t" horiz-adv-x="324" d="M323 424 L323 505 L1 505 L1 424 L113 424 L113 0 L215 0 L215 424 L323 424 L323 424 Z " />
<glyph glyph-name="u" unicode="u" horiz-adv-x="460" d="M401 199 L401 505 L310 505 L310 195 C310 123 307 104 289 86 C278 74 261 68 239 68 C198 68 174 85 167 117 C163 135 162 156 162 193 L162 505 L59 505 L59 193 C59 89 75 46 124 17 C153 -1 189 -9 232 -9 C311 -9 368 23 388 79 C398 109 401 135 401 199 L401 199 Z " />
<glyph glyph-name="v" unicode="v" horiz-adv-x="392" d="M384 505 L292 505 L201 123 L111 505 L8 505 L143 0 L248 0 L384 505 L384 505 Z " />
<glyph glyph-name="w" unicode="w" horiz-adv-x="579" d="M564 505 L476 505 L409 146 L339 505 L250 505 L179 147 L116 505 L15 505 L127 -1 L219 -1 L290 352 L362 -1 L455 -1 L564 505 L564 505 Z " />
<glyph glyph-name="x" unicode="x" horiz-adv-x="358" d="M371 0 L232 275 L355 505 L259 505 L183 357 L114 505 L3 505 L128 262 L-13 0 L84 0 L177 180 L259 0 L371 0 L371 0 Z " />
<glyph glyph-name="y" unicode="y" horiz-adv-x="341" d="M365 505 L268 505 L175 310 L84 505 L-25 505 L116 213 L116 0 L219 0 L219 213 L365 505 L365 505 Z " />
<glyph glyph-name="z" unicode="z" horiz-adv-x="358" d="M351 0 L351 81 L128 81 L346 443 L346 505 L28 505 L28 429 L230 429 L14 71 L14 0 L351 0 L351 0 Z " />
<glyph glyph-name="braceleft" unicode="&#x7b;" horiz-adv-x="324" d="M251 -167 L251 -109 C217 -109 204 -103 197 -85 C192 -71 190 -58 190 -11 L190 106 C190 188 188 208 173 228 C165 240 154 247 129 256 C169 270 183 285 187 321 C190 341 190 359 190 405 L190 511 C190 579 195 594 215 603 C225 607 230 608 251 608 L251 666 C236 667 226 667 219 667 C129 667 96 626 96 511 L96 403 C96 340 96 334 91 319 C89 310 83 302 74 297 C65 292 59 291 43 291 L43 221 C70 221 85 212 91 192 C96 177 96 171 96 108 L96 -11 C96 -73 103 -104 121 -128 C142 -156 172 -168 219 -168 C226 -168 236 -168 251 -167 L251 -167 Z " />
<glyph glyph-name="bar" unicode="&#x7c;" horiz-adv-x="500" d="M297 -250 L297 750 L203 750 L203 -250 L297 -250 L297 -250 Z " />
<glyph glyph-name="braceright" unicode="&#x7d;" horiz-adv-x="324" d="M281 221 L281 291 C253 291 238 300 232 319 C229 328 228 340 228 354 C227 369 227 386 227 403 L227 511 C227 625 194 667 104 667 C98 667 88 667 73 666 L73 608 C127 607 133 597 133 511 L133 405 C133 352 134 341 136 321 C138 306 143 293 150 283 C159 271 169 264 194 256 C155 241 140 226 136 190 C133 169 133 159 133 106 L133 -11 C133 -79 129 -95 108 -104 C98 -108 93 -109 73 -109 L73 -167 C88 -168 98 -168 104 -168 C194 -168 227 -126 227 -11 L227 108 C227 125 227 142 228 158 C228 171 229 183 232 192 C235 201 241 209 249 214 C258 219 265 221 281 221 L281 221 Z " />
<glyph glyph-name="asciitilde" unicode="&#x7e;" horiz-adv-x="667" d="M575 703 L520 735 C492 687 472 673 436 673 C422 673 405 676 390 682 C380 686 364 693 343 702 C290 724 260 733 234 733 C197 733 164 718 141 691 C123 671 115 657 92 609 L145 574 C171 624 194 642 227 642 C241 642 262 638 283 629 L335 607 C368 593 406 583 423 583 C466 583 509 603 536 637 C551 656 557 667 575 703 L575 703 Z " />
<glyph glyph-name="nbspace" unicode="&#xa0;" horiz-adv-x="333" d="" />
<glyph glyph-name="exclamdown" unicode="&#xa1;" horiz-adv-x="341" d="M238 -174 L204 314 L137 314 L103 -174 L238 -174 L238 -174 Z M226 370 L226 493 L115 493 L115 370 L226 370 L226 370 Z " />
<glyph glyph-name="cent" unicode="&#xa2;" horiz-adv-x="511" d="M431 269 L346 281 C340 244 338 235 329 217 C320 200 311 193 289 183 L289 500 C312 489 320 481 330 462 C339 443 342 433 346 400 L431 412 C422 473 413 496 382 530 C356 559 338 568 292 575 L292 667 L234 667 L234 575 C196 570 180 563 158 545 C108 504 79 431 79 341 C79 203 132 121 234 104 L234 -5 L292 -5 L292 104 C338 112 357 121 382 149 C412 182 422 206 431 269 L431 269 Z M236 185 C194 210 178 254 178 340 C178 394 184 436 200 464 C208 478 216 486 236 497 L236 185 L236 185 Z " />
<glyph glyph-name="sterling" unicode="&#xa3;" horiz-adv-x="511" d="M523 135 L444 176 C424 134 410 117 381 104 C351 90 331 87 273 87 L198 87 C230 112 242 125 256 150 C264 166 271 183 275 201 C278 218 280 238 280 260 C280 279 279 288 276 311 L393 311 L393 390 L266 390 L265 404 L257 452 C255 466 254 480 254 495 C254 560 278 595 326 595 C363 595 388 573 407 524 L486 572 C453 647 405 679 327 679 C216 679 148 608 148 495 C148 464 149 453 159 390 L76 390 L76 311 L172 311 C178 272 179 259 179 230 C179 137 136 88 54 88 L20 88 L20 0 L273 0 C364 0 387 3 424 18 C449 28 471 45 487 67 C503 89 509 99 523 135 L523 135 Z " />
<glyph glyph-name="currency" unicode="&#xa4;" horiz-adv-x="667" d="M626 128 L528 227 C562 275 575 315 575 366 C575 417 562 457 527 507 L624 604 L572 656 L475 559 C426 593 386 607 334 607 C282 607 241 593 191 558 L93 656 L41 604 L139 506 C105 458 91 417 91 367 C91 315 107 269 140 226 L43 128 L94 77 L191 174 C243 140 285 126 335 126 C386 126 431 141 477 175 L575 77 L626 128 L626 128 Z M490 366 C490 279 420 209 333 209 C247 209 177 279 177 366 C177 453 247 523 334 523 C420 523 490 453 490 366 L490 366 Z " />
<glyph glyph-name="yen" unicode="&#xa5;" horiz-adv-x="511" d="M484 667 L389 667 L263 368 L140 667 L27 667 L147 401 L47 401 L47 340 L173 340 L204 271 L47 271 L47 210 L205 210 L205 0 L304 0 L304 210 L472 210 L472 271 L304 271 L333 340 L472 340 L472 401 L361 401 L484 667 L484 667 Z " />
<glyph glyph-name="section" unicode="&#xa7;" horiz-adv-x="511" d="M452 3 C452 53 433 95 398 124 C392 129 384 135 375 141 C411 172 424 188 435 217 C442 234 446 254 446 276 C446 318 431 353 404 378 C381 399 361 410 304 433 C244 458 234 462 219 475 C202 488 192 511 192 534 C192 578 222 607 268 607 C318 607 344 585 361 529 L446 549 C432 594 423 611 401 632 C371 661 320 679 267 679 C165 679 97 616 97 523 C97 471 114 435 157 399 C100 359 77 318 77 259 C77 218 92 182 120 158 C145 136 167 124 229 101 C291 77 306 70 325 55 C344 40 355 17 355 -10 C355 -63 318 -95 257 -95 C197 -95 164 -68 149 -5 L58 -21 C81 -122 146 -172 255 -172 C373 -172 452 -102 452 3 L452 3 Z M359 252 C359 223 342 195 312 172 L298 178 L246 198 C191 219 166 246 166 284 C166 316 179 338 214 367 L234 358 L282 337 C337 313 359 288 359 252 L359 252 Z " />
<glyph glyph-name="dieresis" unicode="&#xa8;" horiz-adv-x="500" d="M381 617 C381 646 357 668 328 668 C298 668 274 646 274 617 C274 590 299 568 328 568 C357 568 381 590 381 617 L381 617 Z M226 617 C226 646 202 668 172 668 C143 668 119 646 119 617 C119 590 143 568 172 568 C201 568 226 590 226 617 L226 617 Z " />
<glyph glyph-name="copyright" unicode="&#xa9;" horiz-adv-x="771" d="M731 333 C731 524 576 679 385 679 C195 679 40 524 40 333 C40 143 195 -12 385 -12 C576 -12 731 143 731 333 L731 333 Z M664 333 C664 177 539 50 385 50 C232 50 107 177 107 333 C107 490 232 616 385 616 C539 616 665 490 664 333 L664 333 Z M533 396 L532 402 C516 496 473 540 393 540 C294 540 238 465 238 334 C238 200 293 126 392 126 C471 126 518 171 531 261 L532 268 L457 277 C457 275 456 272 456 271 C446 213 430 192 395 192 C346 192 323 238 323 330 C323 428 346 474 394 474 C431 474 447 453 456 392 L457 385 L533 396 L533 396 Z " />
<glyph glyph-name="ordfeminine" unicode="&#xaa;" horiz-adv-x="341" d="M276 400 L275 404 C272 415 272 417 271 428 C271 441 270 446 270 476 L270 565 C270 612 267 631 253 646 C237 665 209 674 175 674 C117 674 82 646 70 598 L69 594 L130 587 C130 588 130 589 130 590 C136 617 148 628 171 628 C197 628 208 613 208 575 L208 568 C204 568 200 568 198 568 C106 568 60 536 60 472 C60 424 91 394 139 394 C170 394 198 406 211 433 L212 435 L213 429 C213 419 214 412 216 400 L276 400 L276 400 Z M277 297 L277 330 L67 330 L67 297 L277 297 L277 297 Z M208 518 C208 472 187 440 158 440 C137 440 125 453 125 476 C125 511 148 528 194 528 C198 528 201 528 208 528 L208 518 L208 518 Z " />
<glyph glyph-name="guillemotleft" unicode="&#xab;" horiz-adv-x="392" d="M348 96 L295 256 L348 416 L291 416 L197 256 L291 96 L348 96 L348 96 Z M195 100 L142 256 L195 413 L138 413 L44 256 L138 100 L195 100 L195 100 Z " />
<glyph glyph-name="logicalnot" unicode="&#xac;" horiz-adv-x="500" d="M467 0 L467 267 L33 267 L33 183 L373 183 L373 0 L467 0 L467 0 Z " />
<glyph glyph-name="registered" unicode="&#xae;" horiz-adv-x="500" d="M450 563 C450 674 361 763 250 763 C139 763 50 674 50 563 C50 453 140 363 250 363 C360 363 450 453 450 563 L450 563 Z M424 563 C424 467 346 389 250 389 C154 389 76 467 76 563 C76 659 154 737 250 737 C346 737 424 660 424 563 L424 563 Z M336 460 L295 555 C319 566 330 583 330 608 C330 647 304 667 254 667 L183 667 L183 460 L228 460 L228 545 L256 545 L287 460 L336 460 L336 460 Z M285 608 C285 587 273 575 252 575 L228 575 L228 637 L252 637 C274 637 285 627 285 608 L285 608 Z " />
<glyph glyph-name="macron" unicode="&#xaf;" horiz-adv-x="500" d="M385 586 L385 650 L115 650 L115 586 L385 586 L385 586 Z " />
<glyph glyph-name="degree" unicode="&#xb0;" horiz-adv-x="500" d="M396 523 C396 602 331 666 250 666 C169 666 104 602 104 523 C104 444 169 379 250 379 C331 379 396 444 396 523 L396 523 Z M338 523 C338 475 298 436 250 436 C201 436 162 475 162 523 C162 571 201 609 250 609 C298 609 338 570 338 523 L338 523 Z " />
<glyph glyph-name="plusminus" unicode="&#xb1;" horiz-adv-x="500" d="M467 349 L467 436 L297 436 L297 601 L203 601 L203 436 L33 436 L33 349 L203 349 L203 185 L297 185 L297 349 L467 349 L467 349 Z M467 60 L467 147 L33 147 L33 60 L467 60 L467 60 Z " />
<glyph glyph-name="acute" unicode="&#xb4;" horiz-adv-x="500" d="M411 660 L358 727 L202 590 L239 552 L411 660 L411 660 Z " />
<glyph glyph-name="mu" unicode="&#xb5;" horiz-adv-x="500" d="M460 0 L460 479 L368 479 L368 222 C368 171 362 146 345 118 C338 105 329 95 318 86 C299 71 275 62 249 62 C208 62 170 83 150 116 C136 140 132 162 132 215 L132 479 L39 479 L39 -169 L132 -169 L132 57 C146 35 152 27 165 16 C187 -2 216 -12 246 -12 C278 -12 308 -1 331 20 C346 33 353 45 368 75 L368 0 L460 0 L460 0 Z " />
<glyph glyph-name="paragraph" unicode="&#xb6;" horiz-adv-x="528" d="M451 -167 L451 667 L233 667 C144 667 103 653 70 614 C41 579 25 530 25 474 C25 386 61 319 121 295 C152 282 173 279 230 279 L267 279 L267 -167 L334 -167 L334 600 L384 600 L384 -167 L451 -167 L451 -167 Z " />
<glyph glyph-name="periodcentered" unicode="&#xb7;" horiz-adv-x="134" d="M134 278 L134 429 L0 429 L0 278 L134 278 L134 278 Z " />
<glyph glyph-name="cedilla" unicode="&#xb8;" horiz-adv-x="500" d="M365 -118 C365 -74 332 -46 280 -46 C277 -46 274 -46 266 -47 L282 0 L235 0 L206 -83 L219 -83 C226 -82 232 -82 237 -82 C274 -82 296 -96 296 -120 C296 -139 281 -151 256 -151 C233 -151 213 -146 183 -133 L169 -168 C206 -191 232 -199 265 -199 C324 -199 365 -165 365 -118 L365 -118 Z " />
<glyph glyph-name="ordmasculine" unicode="&#xba;" horiz-adv-x="341" d="M281 531 C281 626 243 674 170 674 C98 674 60 625 60 534 C60 442 98 394 170 394 C242 394 281 442 281 531 L281 531 Z M274 297 L274 330 L67 330 L67 297 L274 297 L274 297 Z M214 534 C214 470 201 441 171 441 C140 441 126 470 126 534 C126 598 140 627 171 627 C201 627 214 598 214 534 L214 534 Z " />
<glyph glyph-name="guillemotright" unicode="&#xbb;" horiz-adv-x="392" d="M348 256 L254 416 L197 416 L250 256 L197 96 L254 96 L348 256 L348 256 Z M195 256 L101 416 L44 416 L96 256 L44 96 L101 96 L195 256 L195 256 Z " />
<glyph glyph-name="questiondown" unicode="&#xbf;" horiz-adv-x="494" d="M326 373 L326 493 L218 493 L218 373 L326 373 L326 373 Z M456 21 L361 40 C355 -54 322 -98 259 -98 C205 -98 173 -64 173 -5 C173 43 191 77 234 114 L268 143 C296 167 313 201 316 239 C317 253 318 271 318 295 C318 299 318 306 318 315 L226 315 C226 302 226 294 226 290 C226 238 217 221 163 177 C109 133 86 104 73 63 C66 42 63 19 63 -4 C63 -115 136 -186 254 -186 C375 -186 444 -115 456 21 L456 21 Z " />
<glyph glyph-name="Agrave" unicode="&#xc0;" horiz-adv-x="494" d="M315 774 L123 869 L88 788 L289 726 L315 774 L315 774 Z M491 0 L313 667 L189 667 L-4 0 L101 0 L143 167 L337 167 L379 0 L491 0 L491 0 Z M315 254 L164 254 L240 559 L315 254 L315 254 Z " />
<glyph glyph-name="Aacute" unicode="&#xc1;" horiz-adv-x="494" d="M413 788 L379 869 L186 774 L213 726 L413 788 L413 788 Z M491 0 L313 667 L189 667 L-4 0 L101 0 L143 167 L337 167 L379 0 L491 0 L491 0 Z M315 254 L164 254 L240 559 L315 254 L315 254 Z " />
<glyph glyph-name="Acircumflex" unicode="&#xc2;" horiz-adv-x="494" d="M430 733 L250 860 L71 733 L160 726 L250 776 L341 726 L430 733 L430 733 Z M491 0 L313 667 L189 667 L-4 0 L101 0 L143 167 L337 167 L379 0 L491 0 L491 0 Z M315 254 L164 254 L240 559 L315 254 L315 254 Z " />
<glyph glyph-name="Atilde" unicode="&#xc3;" horiz-adv-x="494" d="M411 805 L367 834 C350 809 337 799 319 799 C305 799 293 803 262 817 C231 832 216 836 196 836 C154 836 123 815 90 763 L133 734 C154 760 165 768 182 768 C197 768 207 765 237 751 C268 736 285 731 304 731 C346 731 378 754 411 805 L411 805 Z M491 0 L313 667 L189 667 L-4 0 L101 0 L143 167 L337 167 L379 0 L491 0 L491 0 Z M315 254 L164 254 L240 559 L315 254 L315 254 Z " />
<glyph glyph-name="Adieresis" unicode="&#xc4;" horiz-adv-x="494" d="M385 785 C385 814 361 837 330 837 C300 837 276 814 276 785 C276 757 300 733 330 733 C361 733 385 757 385 785 L385 785 Z M225 785 C225 814 201 837 170 837 C140 837 116 814 116 785 C116 757 140 733 170 733 C200 733 225 757 225 785 L225 785 Z M491 0 L313 667 L189 667 L-4 0 L101 0 L143 167 L337 167 L379 0 L491 0 L491 0 Z M315 254 L164 254 L240 559 L315 254 L315 254 Z " />
<glyph glyph-name="Aring" unicode="&#xc5;" horiz-adv-x="494" d="M346 802 C346 855 304 898 252 898 C199 898 157 856 157 802 C157 751 200 709 252 709 C304 709 346 751 346 802 L346 802 Z M491 0 L313 667 L189 667 L-4 0 L101 0 L143 167 L337 167 L379 0 L491 0 L491 0 Z M295 803 C295 779 276 759 252 759 C228 759 209 779 209 803 C209 827 228 848 252 848 C276 848 295 828 295 803 L295 803 Z M315 254 L164 254 L240 559 L315 254 L315 254 Z " />
<glyph glyph-name="AE" unicode="&#xc6;" horiz-adv-x="698" d="M689 0 L689 90 L420 90 L420 299 L630 299 L630 387 L420 387 L420 578 L687 578 L687 667 L262 667 L-41 0 L60 0 L139 183 L312 183 L312 0 L689 0 L689 0 Z M313 268 L173 268 L313 595 L313 268 L313 268 Z " />
<glyph glyph-name="Ccedilla" unicode="&#xc7;" horiz-adv-x="528" d="M502 451 C480 604 410 679 285 679 C129 679 42 554 42 334 C42 123 116 4 258 -11 L231 -88 L244 -89 L248 -89 L268 -89 C275 -89 282 -90 289 -91 C296 -93 302 -95 307 -99 C317 -105 322 -115 322 -126 C322 -145 307 -157 283 -157 C259 -157 240 -152 207 -138 L194 -176 C232 -199 258 -207 293 -207 C353 -207 396 -173 396 -124 C396 -79 361 -50 308 -50 C304 -50 301 -50 294 -50 L307 -11 C418 -1 481 71 501 210 L399 224 C382 119 351 79 288 79 C202 79 159 162 159 328 C159 503 200 588 287 588 C333 588 369 560 384 512 C392 488 393 477 399 436 L502 451 L502 451 Z " />
<glyph glyph-name="Egrave" unicode="&#xc8;" horiz-adv-x="460" d="M312 774 L120 869 L85 788 L285 726 L312 774 L312 774 Z M450 0 L450 90 L174 90 L174 299 L387 299 L387 387 L174 387 L174 578 L446 578 L446 667 L64 667 L64 0 L450 0 L450 0 Z " />
<glyph glyph-name="Eacute" unicode="&#xc9;" horiz-adv-x="460" d="M410 788 L375 869 L183 774 L210 726 L410 788 L410 788 Z M450 0 L450 90 L174 90 L174 299 L387 299 L387 387 L174 387 L174 578 L446 578 L446 667 L64 667 L64 0 L450 0 L450 0 Z " />
<glyph glyph-name="Ecircumflex" unicode="&#xca;" horiz-adv-x="460" d="M423 733 L243 860 L64 733 L153 726 L243 776 L334 726 L423 733 L423 733 Z M450 0 L450 90 L174 90 L174 299 L387 299 L387 387 L174 387 L174 578 L446 578 L446 667 L64 667 L64 0 L450 0 L450 0 Z " />
<glyph glyph-name="Edieresis" unicode="&#xcb;" horiz-adv-x="460" d="M378 785 C378 814 354 837 323 837 C293 837 269 814 269 785 C269 757 293 733 323 733 C354 733 378 757 378 785 L378 785 Z M218 785 C218 814 194 837 163 837 C133 837 109 814 109 785 C109 757 133 733 163 733 C193 733 218 757 218 785 L218 785 Z M450 0 L450 90 L174 90 L174 299 L387 299 L387 387 L174 387 L174 578 L446 578 L446 667 L64 667 L64 0 L450 0 L450 0 Z " />
<glyph glyph-name="Igrave" unicode="&#xcc;" horiz-adv-x="239" d="M170 735 L50 885 L-9 833 L130 706 L170 735 L170 735 Z M174 0 L174 667 L64 667 L64 0 L174 0 L174 0 Z " />
<glyph glyph-name="Iacute" unicode="&#xcd;" horiz-adv-x="239" d="M256 833 L197 885 L76 735 L116 706 L256 833 L256 833 Z M174 0 L174 667 L64 667 L64 0 L174 0 L174 0 Z " />
<glyph glyph-name="Icircumflex" unicode="&#xce;" horiz-adv-x="238" d="M250 739 L119 853 L-12 739 L53 733 L119 778 L185 733 L250 739 L250 739 Z M174 0 L174 667 L64 667 L64 0 L174 0 L174 0 Z " />
<glyph glyph-name="Idieresis" unicode="&#xcf;" horiz-adv-x="238" d="M241 785 C241 811 219 832 191 832 C164 832 142 811 142 785 C142 759 164 739 191 739 C218 739 241 759 241 785 L241 785 Z M97 785 C97 811 75 832 47 832 C20 832 -2 811 -2 785 C-2 759 20 739 47 739 C74 739 97 759 97 785 L97 785 Z M174 0 L174 667 L64 667 L64 0 L174 0 L174 0 Z " />
<glyph glyph-name="Ntilde" unicode="&#xd1;" horiz-adv-x="562" d="M442 805 L397 834 C381 809 368 799 350 799 C336 799 324 803 293 817 C261 832 246 836 226 836 C185 836 154 815 120 763 L164 734 C184 760 195 768 213 768 C227 768 238 765 268 751 C299 736 316 731 335 731 C376 731 409 754 442 805 L442 805 Z M502 0 L502 667 L410 667 L410 186 L190 667 L60 667 L60 0 L153 0 L153 534 L399 0 L502 0 L502 0 Z " />
<glyph glyph-name="Ograve" unicode="&#xd2;" horiz-adv-x="562" d="M350 774 L157 869 L122 788 L323 726 L350 774 L350 774 Z M521 333 C521 559 438 679 283 679 C125 679 42 559 42 333 C42 108 125 -12 283 -12 C438 -12 521 108 521 333 L521 333 Z M405 333 C405 160 366 78 282 78 C196 78 157 158 157 333 C157 508 197 588 281 588 C366 588 405 507 405 333 L405 333 Z " />
<glyph glyph-name="Oacute" unicode="&#xd3;" horiz-adv-x="562" d="M448 788 L413 869 L220 774 L247 726 L448 788 L448 788 Z M521 333 C521 559 438 679 283 679 C125 679 42 559 42 333 C42 108 125 -12 283 -12 C438 -12 521 108 521 333 L521 333 Z M405 333 C405 160 366 78 282 78 C196 78 157 158 157 333 C157 508 197 588 281 588 C366 588 405 507 405 333 L405 333 Z " />
<glyph glyph-name="Ocircumflex" unicode="&#xd4;" horiz-adv-x="562" d="M461 733 L281 860 L101 733 L191 726 L281 776 L371 726 L461 733 L461 733 Z M521 333 C521 559 438 679 283 679 C125 679 42 559 42 333 C42 108 125 -12 283 -12 C438 -12 521 108 521 333 L521 333 Z M405 333 C405 160 366 78 282 78 C196 78 157 158 157 333 C157 508 197 588 281 588 C366 588 405 507 405 333 L405 333 Z " />
<glyph glyph-name="Otilde" unicode="&#xd5;" horiz-adv-x="562" d="M442 805 L397 834 C381 809 368 799 350 799 C336 799 324 803 293 817 C261 832 246 836 226 836 C185 836 154 815 120 763 L164 734 C184 760 195 768 213 768 C227 768 238 765 268 751 C299 736 316 731 335 731 C376 731 409 754 442 805 L442 805 Z M521 333 C521 559 438 679 283 679 C125 679 42 559 42 333 C42 108 125 -12 283 -12 C438 -12 521 108 521 333 L521 333 Z M405 333 C405 160 366 78 282 78 C196 78 157 158 157 333 C157 508 197 588 281 588 C366 588 405 507 405 333 L405 333 Z " />
<glyph glyph-name="Odieresis" unicode="&#xd6;" horiz-adv-x="562" d="M416 785 C416 814 392 837 361 837 C331 837 306 814 306 785 C306 757 331 733 361 733 C391 733 416 757 416 785 L416 785 Z M256 785 C256 814 232 837 201 837 C171 837 146 814 146 785 C146 757 171 733 201 733 C231 733 256 757 256 785 L256 785 Z M521 333 C521 559 438 679 283 679 C125 679 42 559 42 333 C42 108 125 -12 283 -12 C438 -12 521 108 521 333 L521 333 Z M405 333 C405 160 366 78 282 78 C196 78 157 158 157 333 C157 508 197 588 281 588 C366 588 405 507 405 333 L405 333 Z " />
<glyph glyph-name="Oslash" unicode="&#xd8;" horiz-adv-x="562" d="M518 333 C518 454 497 537 450 601 L501 703 L438 703 L407 643 C369 668 330 679 281 679 C127 679 44 558 44 333 C44 210 67 125 116 61 L65 -41 L129 -41 L160 21 C200 -2 236 -12 283 -12 C436 -12 518 108 518 333 L518 333 Z M361 566 L171 158 C156 210 151 257 151 327 C151 513 190 593 282 593 C316 593 337 586 361 566 L361 566 Z M411 333 C411 154 371 74 280 74 C249 74 228 80 205 97 L394 500 C404 467 406 456 409 412 C411 385 411 359 411 333 L411 333 Z " />
<glyph glyph-name="Ugrave" unicode="&#xd9;" horiz-adv-x="545" d="M331 774 L139 869 L104 788 L304 726 L331 774 L331 774 Z M486 260 L486 667 L387 667 L387 255 C387 193 386 176 380 151 C376 133 367 116 355 104 C337 87 314 79 281 79 C221 79 186 103 175 150 C169 174 167 198 167 253 L167 667 L59 667 L59 253 C59 117 78 58 135 22 C171 -1 216 -12 272 -12 C374 -12 445 29 469 102 C483 142 486 175 486 260 L486 260 Z " />
<glyph glyph-name="Uacute" unicode="&#xda;" horiz-adv-x="545" d="M442 788 L407 869 L215 774 L242 726 L442 788 L442 788 Z M486 260 L486 667 L387 667 L387 255 C387 193 386 176 380 151 C376 133 367 116 355 104 C337 87 314 79 281 79 C221 79 186 103 175 150 C169 174 167 198 167 253 L167 667 L59 667 L59 253 C59 117 78 58 135 22 C171 -1 216 -12 272 -12 C374 -12 445 29 469 102 C483 142 486 175 486 260 L486 260 Z " />
<glyph glyph-name="Ucircumflex" unicode="&#xdb;" horiz-adv-x="545" d="M456 733 L276 860 L96 733 L186 726 L276 776 L366 726 L456 733 L456 733 Z M486 260 L486 667 L387 667 L387 255 C387 193 386 176 380 151 C376 133 367 116 355 104 C337 87 314 79 281 79 C221 79 186 103 175 150 C169 174 167 198 167 253 L167 667 L59 667 L59 253 C59 117 78 58 135 22 C171 -1 216 -12 272 -12 C374 -12 445 29 469 102 C483 142 486 175 486 260 L486 260 Z " />
<glyph glyph-name="Udieresis" unicode="&#xdc;" horiz-adv-x="545" d="M411 785 C411 814 386 837 356 837 C326 837 301 814 301 785 C301 757 326 733 356 733 C386 733 411 757 411 785 L411 785 Z M251 785 C251 814 226 837 196 837 C165 837 141 814 141 785 C141 757 166 733 196 733 C226 733 251 757 251 785 L251 785 Z M486 260 L486 667 L387 667 L387 255 C387 193 386 176 380 151 C376 133 367 116 355 104 C337 87 314 79 281 79 C221 79 186 103 175 150 C169 174 167 198 167 253 L167 667 L59 667 L59 253 C59 117 78 58 135 22 C171 -1 216 -12 272 -12 C374 -12 445 29 469 102 C483 142 486 175 486 260 L486 260 Z " />
<glyph glyph-name="germandbls" unicode="&#xdf;" horiz-adv-x="852" d="M819 147 C819 187 801 227 772 251 C749 270 723 284 674 302 C621 322 611 327 597 340 C585 350 579 363 579 379 C579 412 604 435 641 435 C684 435 704 415 724 357 L808 385 C793 433 782 452 756 475 C726 501 687 515 639 515 C541 515 471 454 471 370 C471 329 490 289 520 265 C547 243 559 237 630 211 C691 189 711 170 711 135 C711 95 682 71 635 71 C580 71 551 99 538 164 L450 139 C474 39 535 -9 638 -9 C744 -9 819 55 819 147 L819 147 Z M393 147 C393 187 375 227 346 251 C323 270 297 284 249 302 C195 322 185 327 171 340 C159 350 153 363 153 379 C153 412 178 435 215 435 C258 435 278 415 298 357 L382 385 C367 433 356 452 330 475 C300 501 261 515 213 515 C115 515 45 454 45 370 C45 329 64 289 94 265 C121 243 133 237 204 211 C265 189 285 170 285 135 C285 95 256 71 209 71 C155 71 125 99 112 164 L24 139 C48 39 109 -9 212 -9 C318 -9 393 55 393 147 L393 147 Z " />
<glyph glyph-name="agrave" unicode="&#xe0;" horiz-adv-x="409" d="M266 590 L110 727 L57 660 L229 552 L266 590 L266 590 Z M402 0 L263 505 L154 505 L4 0 L99 0 L131 123 L268 123 L300 0 L402 0 L402 0 Z M252 200 L150 200 L201 401 L252 200 L252 200 Z " />
<glyph glyph-name="aacute" unicode="&#xe1;" horiz-adv-x="409" d="M366 660 L313 727 L156 590 L194 552 L366 660 L366 660 Z M402 0 L263 505 L154 505 L4 0 L99 0 L131 123 L268 123 L300 0 L402 0 L402 0 Z M252 200 L150 200 L201 401 L252 200 L252 200 Z " />
<glyph glyph-name="acircumflex" unicode="&#xe2;" horiz-adv-x="409" d="M386 563 L211 697 L37 563 L124 556 L211 615 L299 556 L386 563 L386 563 Z M402 0 L263 505 L154 505 L4 0 L99 0 L131 123 L268 123 L300 0 L402 0 L402 0 Z M252 200 L150 200 L201 401 L252 200 L252 200 Z " />
<glyph glyph-name="atilde" unicode="&#xe3;" horiz-adv-x="409" d="M362 641 L320 668 C304 641 293 632 276 632 C263 632 249 637 222 652 C191 669 179 674 159 674 C121 674 92 652 60 599 L101 571 C121 600 131 608 148 608 C161 608 172 604 199 588 C227 572 243 566 262 566 C301 566 331 588 362 641 L362 641 Z M402 0 L263 505 L154 505 L4 0 L99 0 L131 123 L268 123 L300 0 L402 0 L402 0 Z M252 200 L150 200 L201 401 L252 200 L252 200 Z " />
<glyph glyph-name="adieresis" unicode="&#xe4;" horiz-adv-x="409" d="M342 617 C342 646 318 668 289 668 C259 668 236 646 236 617 C236 590 260 568 289 568 C318 568 342 590 342 617 L342 617 Z M187 617 C187 646 163 668 133 668 C104 668 80 646 80 617 C80 590 104 568 133 568 C163 568 187 590 187 617 L187 617 Z M402 0 L263 505 L154 505 L4 0 L99 0 L131 123 L268 123 L300 0 L402 0 L402 0 Z M252 200 L150 200 L201 401 L252 200 L252 200 Z " />
<glyph glyph-name="aring" unicode="&#xe5;" horiz-adv-x="409" d="M298 635 C298 687 257 728 206 728 C155 728 114 687 114 635 C114 585 156 544 206 544 C256 544 298 585 298 635 L298 635 Z M402 0 L263 505 L154 505 L4 0 L99 0 L131 123 L268 123 L300 0 L402 0 L402 0 Z M248 636 C248 612 229 593 206 593 C183 593 164 612 164 636 C164 660 183 679 206 679 C229 679 248 660 248 636 L248 636 Z M252 200 L150 200 L201 401 L252 200 L252 200 Z " />
<glyph glyph-name="ae" unicode="&#xe6;" horiz-adv-x="579" d="M554 0 L554 76 L356 76 L356 221 L509 221 L509 298 L356 298 L356 429 L553 429 L553 505 L215 505 L-21 0 L74 0 L133 135 L254 135 L254 0 L554 0 L554 0 Z M258 211 L163 211 L258 427 L258 211 L258 211 Z " />
<glyph glyph-name="ccedilla" unicode="&#xe7;" horiz-adv-x="443" d="M420 167 L325 179 C314 103 289 70 243 70 C182 70 148 137 148 253 C148 370 183 435 246 435 C292 435 316 400 324 322 L420 334 C403 457 347 515 245 515 C114 515 40 419 40 253 C40 92 106 0 227 -9 L201 -84 L213 -84 C218 -84 222 -84 227 -84 C270 -84 291 -96 291 -122 C291 -141 276 -152 251 -152 C228 -152 208 -148 177 -134 L164 -170 C200 -193 227 -201 260 -201 C319 -201 361 -167 361 -119 C361 -75 328 -47 276 -47 C272 -47 269 -47 261 -47 L276 -5 C362 9 405 61 420 167 L420 167 Z " />
<glyph glyph-name="egrave" unicode="&#xe8;" horiz-adv-x="392" d="M265 590 L108 727 L55 660 L227 552 L265 590 L265 590 Z M366 0 L366 76 L162 76 L162 221 L319 221 L319 298 L162 298 L162 429 L363 429 L363 505 L60 505 L60 0 L366 0 L366 0 Z " />
<glyph glyph-name="eacute" unicode="&#xe9;" horiz-adv-x="392" d="M357 660 L304 727 L148 590 L185 552 L357 660 L357 660 Z M366 0 L366 76 L162 76 L162 221 L319 221 L319 298 L162 298 L162 429 L363 429 L363 505 L60 505 L60 0 L366 0 L366 0 Z " />
<glyph glyph-name="ecircumflex" unicode="&#xea;" horiz-adv-x="392" d="M384 563 L209 697 L35 563 L122 556 L209 615 L297 556 L384 563 L384 563 Z M366 0 L366 76 L162 76 L162 221 L319 221 L319 298 L162 298 L162 429 L363 429 L363 505 L60 505 L60 0 L366 0 L366 0 Z " />
<glyph glyph-name="edieresis" unicode="&#xeb;" horiz-adv-x="392" d="M334 617 C334 646 310 668 280 668 C251 668 227 646 227 617 C227 590 251 568 280 568 C309 568 334 590 334 617 L334 617 Z M178 617 C178 646 154 668 125 668 C95 668 72 646 72 617 C72 590 96 568 125 568 C154 568 178 590 178 617 L178 617 Z M366 0 L366 76 L162 76 L162 221 L319 221 L319 298 L162 298 L162 429 L363 429 L363 505 L60 505 L60 0 L366 0 L366 0 Z " />
<glyph glyph-name="igrave" unicode="&#xec;" horiz-adv-x="222" d="M147 559 L72 730 L3 696 L102 542 L147 559 L147 559 Z M162 0 L162 505 L60 505 L60 0 L162 0 L162 0 Z " />
<glyph glyph-name="iacute" unicode="&#xed;" horiz-adv-x="222" d="M219 696 L150 730 L75 559 L120 542 L219 696 L219 696 Z M162 0 L162 505 L60 505 L60 0 L162 0 L162 0 Z " />
<glyph glyph-name="icircumflex" unicode="&#xee;" horiz-adv-x="221" d="M236 569 L111 690 L-14 569 L48 563 L111 616 L173 563 L236 569 L236 569 Z M162 0 L162 505 L60 505 L60 0 L162 0 L162 0 Z " />
<glyph glyph-name="idieresis" unicode="&#xef;" horiz-adv-x="221" d="M222 618 C222 641 202 661 177 661 C152 661 131 641 131 618 C131 594 152 575 177 575 C201 575 222 594 222 618 L222 618 Z M90 617 C90 641 70 661 45 661 C20 661 0 641 0 618 C0 594 20 575 45 575 C70 575 90 594 90 617 L90 617 Z M162 0 L162 505 L60 505 L60 0 L162 0 L162 0 Z " />
<glyph glyph-name="ntilde" unicode="&#xf1;" horiz-adv-x="460" d="M381 641 L339 668 C323 641 312 632 295 632 C282 632 268 637 241 652 C210 669 198 674 178 674 C140 674 111 652 79 599 L120 571 C140 600 150 608 166 608 C180 608 191 604 218 588 C246 572 262 566 281 566 C319 566 350 588 381 641 L381 641 Z M408 0 L408 505 L321 505 L321 172 L169 505 L52 505 L52 0 L139 0 L139 373 L312 0 L408 0 L408 0 Z " />
<glyph glyph-name="ograve" unicode="&#xf2;" horiz-adv-x="477" d="M300 590 L144 727 L91 660 L263 552 L300 590 L300 590 Z M435 253 C435 423 367 515 239 515 C111 515 41 423 41 252 C41 82 111 -9 239 -9 C367 -9 435 82 435 253 L435 253 Z M328 253 C328 128 299 68 240 68 C177 68 149 126 149 253 C149 378 178 437 238 437 C299 437 328 378 328 253 L328 253 Z " />
<glyph glyph-name="oacute" unicode="&#xf3;" horiz-adv-x="477" d="M400 660 L347 727 L190 590 L228 552 L400 660 L400 660 Z M435 253 C435 423 367 515 239 515 C111 515 41 423 41 252 C41 82 111 -9 239 -9 C367 -9 435 82 435 253 L435 253 Z M328 253 C328 128 299 68 240 68 C177 68 149 126 149 253 C149 378 178 437 238 437 C299 437 328 378 328 253 L328 253 Z " />
<glyph glyph-name="ocircumflex" unicode="&#xf4;" horiz-adv-x="477" d="M413 563 L239 697 L64 563 L151 556 L239 615 L326 556 L413 563 L413 563 Z M435 253 C435 423 367 515 239 515 C111 515 41 423 41 252 C41 82 111 -9 239 -9 C367 -9 435 82 435 253 L435 253 Z M328 253 C328 128 299 68 240 68 C177 68 149 126 149 253 C149 378 178 437 238 437 C299 437 328 378 328 253 L328 253 Z " />
<glyph glyph-name="otilde" unicode="&#xf5;" horiz-adv-x="477" d="M389 641 L348 668 C331 641 320 632 304 632 C290 632 277 637 249 652 C219 669 206 674 186 674 C148 674 120 652 88 599 L129 571 C149 600 158 608 175 608 C189 608 199 603 226 588 C255 571 270 566 290 566 C328 566 358 588 389 641 L389 641 Z M435 253 C435 423 367 515 239 515 C111 515 41 423 41 252 C41 82 111 -9 239 -9 C367 -9 435 82 435 253 L435 253 Z M328 253 C328 128 299 68 240 68 C177 68 149 126 149 253 C149 378 178 437 238 437 C299 437 328 378 328 253 L328 253 Z " />
<glyph glyph-name="odieresis" unicode="&#xf6;" horiz-adv-x="477" d="M369 617 C369 646 346 668 316 668 C287 668 263 646 263 617 C263 590 287 568 316 568 C345 568 369 590 369 617 L369 617 Z M214 617 C214 646 190 668 161 668 C131 668 108 646 108 617 C108 590 132 568 161 568 C190 568 214 590 214 617 L214 617 Z M435 253 C435 423 367 515 239 515 C111 515 41 423 41 252 C41 82 111 -9 239 -9 C367 -9 435 82 435 253 L435 253 Z M328 253 C328 128 299 68 240 68 C177 68 149 126 149 253 C149 378 178 437 238 437 C299 437 328 378 328 253 L328 253 Z " />
<glyph glyph-name="divide" unicode="&#xf7;" horiz-adv-x="500" d="M308 513 C308 545 282 571 250 571 C218 571 192 545 192 513 C192 481 218 455 250 455 C282 455 308 481 308 513 L308 513 Z M467 292 L467 379 L33 379 L33 292 L467 292 L467 292 Z M308 158 C308 190 282 216 250 216 C218 216 192 190 192 158 C192 126 218 99 250 99 C282 99 308 126 308 158 L308 158 Z " />
<glyph glyph-name="oslash" unicode="&#xf8;" horiz-adv-x="477" d="M435 247 C435 343 417 404 373 453 L415 532 L355 532 L333 490 C305 507 275 515 238 515 C112 515 41 422 41 258 C41 162 61 98 107 49 L66 -31 L125 -31 L148 14 C188 -5 206 -9 240 -9 C365 -9 435 83 435 247 L435 247 Z M292 422 L156 140 C143 181 140 198 140 242 C140 321 153 381 178 411 C193 428 214 437 242 437 C263 437 277 433 292 422 L292 422 Z M338 254 C338 129 304 68 236 68 C216 68 203 72 188 80 L324 366 C335 312 338 288 338 254 L338 254 Z " />
<glyph glyph-name="ugrave" unicode="&#xf9;" horiz-adv-x="460" d="M292 590 L135 727 L82 660 L255 552 L292 590 L292 590 Z M401 199 L401 505 L310 505 L310 195 C310 123 307 104 289 86 C278 74 261 68 239 68 C198 68 174 85 167 117 C163 135 162 156 162 193 L162 505 L59 505 L59 193 C59 89 75 46 124 17 C153 -1 189 -9 232 -9 C311 -9 368 23 388 79 C398 109 401 135 401 199 L401 199 Z " />
<glyph glyph-name="uacute" unicode="&#xfa;" horiz-adv-x="460" d="M398 660 L345 727 L189 590 L226 552 L398 660 L398 660 Z M401 199 L401 505 L310 505 L310 195 C310 123 307 104 289 86 C278 74 261 68 239 68 C198 68 174 85 167 117 C163 135 162 156 162 193 L162 505 L59 505 L59 193 C59 89 75 46 124 17 C153 -1 189 -9 232 -9 C311 -9 368 23 388 79 C398 109 401 135 401 199 L401 199 Z " />
<glyph glyph-name="ucircumflex" unicode="&#xfb;" horiz-adv-x="460" d="M411 563 L237 697 L62 563 L149 556 L237 615 L324 556 L411 563 L411 563 Z M401 199 L401 505 L311 505 L311 195 C311 123 307 104 289 86 C278 74 261 68 239 68 C198 68 174 85 167 117 C163 135 162 156 162 193 L162 505 L60 505 L60 193 C60 89 76 46 124 17 C153 -1 189 -9 232 -9 C311 -9 368 23 388 79 C398 109 401 135 401 199 L401 199 Z " />
<glyph glyph-name="udieresis" unicode="&#xfc;" horiz-adv-x="460" d="M368 617 C368 646 344 668 314 668 C285 668 261 646 261 617 C261 590 285 568 314 568 C344 568 368 590 368 617 L368 617 Z M212 617 C212 646 189 668 159 668 C129 668 106 646 106 617 C106 590 130 568 159 568 C188 568 212 590 212 617 L212 617 Z M401 199 L401 505 L310 505 L310 195 C310 123 307 104 289 86 C278 74 261 68 239 68 C198 68 174 85 167 117 C163 135 162 156 162 193 L162 505 L59 505 L59 193 C59 89 75 46 124 17 C153 -1 189 -9 232 -9 C311 -9 368 23 388 79 C398 109 401 135 401 199 L401 199 Z " />
<glyph glyph-name="ydieresis" unicode="&#xff;" horiz-adv-x="341" d="M305 617 C305 646 281 668 251 668 C222 668 198 646 198 617 C198 590 222 568 251 568 C281 568 305 590 305 617 L305 617 Z M149 617 C149 646 126 668 96 668 C66 668 43 646 43 617 C43 590 67 568 96 568 C125 568 149 590 149 617 L149 617 Z M365 505 L268 505 L175 310 L84 505 L-25 505 L116 213 L116 0 L219 0 L219 213 L365 505 L365 505 Z " />
<glyph glyph-name="dotlessi" unicode="&#x131;" horiz-adv-x="222" d="M162 0 L162 505 L60 505 L60 0 L162 0 L162 0 Z " />
<glyph glyph-name="OE" unicode="&#x152;" horiz-adv-x="801" d="M791 0 L791 90 L511 90 L511 299 L729 299 L729 387 L511 387 L511 578 L789 578 L789 667 L412 667 L412 611 C386 644 372 655 346 666 C326 675 304 679 281 679 C131 679 41 549 41 334 C41 118 130 -12 278 -12 C302 -12 325 -8 343 0 C369 12 383 25 408 61 L408 0 L791 0 L791 0 Z M405 169 C383 108 346 79 292 79 C202 79 158 158 158 320 C158 506 199 588 290 588 C345 588 377 566 405 507 L405 169 L405 169 Z " />
<glyph glyph-name="oe" unicode="&#x153;" horiz-adv-x="647" d="M622 0 L622 76 L418 76 L418 221 L575 221 L575 298 L418 298 L418 429 L621 429 L621 505 L321 505 L321 454 C297 496 265 515 219 515 C111 515 40 411 40 252 C40 91 108 -9 217 -9 C263 -9 291 8 318 53 L318 0 L622 0 L622 0 Z M316 147 C300 92 276 68 238 68 C177 68 148 125 148 243 C148 376 176 437 236 437 C276 437 296 419 316 363 L316 147 L316 147 Z " />
<glyph glyph-name="Ydieresis" unicode="&#x178;" horiz-adv-x="409" d="M343 785 C343 814 318 837 288 837 C257 837 233 814 233 785 C233 757 258 733 288 733 C318 733 343 757 343 785 L343 785 Z M183 785 C183 814 158 837 128 837 C97 837 73 814 73 785 C73 757 98 733 128 733 C158 733 183 757 183 785 L183 785 Z M440 667 L335 667 L211 389 L88 667 L-32 667 L145 282 L145 0 L256 0 L256 282 L440 667 L440 667 Z " />
<glyph glyph-name="florin" unicode="&#x192;" horiz-adv-x="511" d="M478 673 C451 678 440 680 422 680 C370 680 328 663 301 631 C275 600 260 564 246 493 C245 486 243 475 240 460 L160 460 L148 378 L227 378 L178 68 C161 -40 145 -61 84 -61 C75 -61 69 -60 54 -59 L41 -144 C63 -147 73 -148 90 -148 C163 -148 215 -119 240 -65 C254 -34 265 4 274 61 L324 378 L426 378 L438 460 L337 460 C350 535 358 556 376 576 C389 589 408 596 434 596 C449 596 453 595 465 592 L478 673 L478 673 Z " />
<glyph glyph-name="circumflex" unicode="&#x2c6;" horiz-adv-x="500" d="M425 563 L250 697 L76 563 L162 556 L250 615 L338 556 L425 563 L425 563 Z " />
<glyph glyph-name="caron" unicode="&#x2c7;" horiz-adv-x="500" d="M425 682 L338 688 L250 629 L163 688 L76 682 L250 547 L425 682 L425 682 Z " />
<glyph glyph-name="breve" unicode="&#x2d8;" horiz-adv-x="500" d="M400 675 L331 675 C319 635 296 620 250 620 C204 620 181 635 169 675 L100 675 C119 593 167 556 250 556 C334 556 380 593 400 675 L400 675 Z " />
<glyph glyph-name="dotaccent" unicode="&#x2d9;" horiz-adv-x="500" d="M309 617 C309 650 283 676 250 676 C217 676 191 650 191 617 C191 586 218 560 250 560 C283 560 309 586 309 617 L309 617 Z " />
<glyph glyph-name="ring" unicode="&#x2da;" horiz-adv-x="500" d="M353 635 C353 687 312 728 261 728 C210 728 170 687 170 635 C170 585 211 544 261 544 C312 544 353 585 353 635 L353 635 Z M303 636 C303 612 285 593 261 593 C238 593 220 612 220 636 C220 660 238 679 261 679 C285 679 303 660 303 636 L303 636 Z " />
<glyph glyph-name="ogonek" unicode="&#x2db;" horiz-adv-x="500" d="M391 -160 L382 -122 C369 -124 361 -124 350 -124 C308 -124 286 -108 286 -76 C286 -50 297 -30 328 0 L284 0 C236 -27 217 -52 217 -89 C217 -139 259 -171 325 -171 C350 -171 368 -168 391 -160 L391 -160 Z " />
<glyph glyph-name="tilde" unicode="&#x2dc;" horiz-adv-x="500" d="M401 641 L359 668 C343 641 332 632 315 632 C302 632 288 637 261 652 C230 669 218 674 198 674 C160 674 131 652 99 599 L140 571 C160 600 170 608 186 608 C200 608 211 604 238 588 C266 572 282 566 301 566 C339 566 370 588 401 641 L401 641 Z " />
<glyph glyph-name="hungarumlaut" unicode="&#x2dd;" horiz-adv-x="500" d="M464 656 L411 713 L298 585 L329 552 L464 656 L464 656 Z M326 656 L272 713 L160 585 L191 552 L326 656 L326 656 Z " />
<glyph glyph-name="pi" unicode="&#x3c0;" horiz-adv-x="611" d="M580 414 L580 498 L31 498 L31 414 L107 414 L107 0 L200 0 L200 414 L413 414 L413 0 L506 0 L506 414 L580 414 L580 414 Z " />
<glyph glyph-name="endash" unicode="&#x2013;" horiz-adv-x="500" d="M467 292 L467 379 L33 379 L33 292 L467 292 L467 292 Z " />
<glyph glyph-name="emdash" unicode="&#x2014;" horiz-adv-x="582" d="M582 211 L582 290 L0 290 L0 211 L582 211 L582 211 Z " />
<glyph glyph-name="quoteleft" unicode="&#x2018;" horiz-adv-x="221" d="M169 678 L120 678 L53 553 L53 432 L159 432 L159 556 L112 556 L169 678 L169 678 Z " />
<glyph glyph-name="quoteright" unicode="&#x2019;" horiz-adv-x="225" d="M170 546 L170 667 L64 667 L64 543 L111 543 L54 421 L103 421 L170 546 L170 546 Z " />
<glyph glyph-name="quotesinglbase" unicode="&#x201a;" horiz-adv-x="225" d="M170 3 L170 124 L64 124 L64 0 L111 0 L54 -122 L103 -122 L170 3 L170 3 Z " />
<glyph glyph-name="quotedblleft" unicode="&#x201c;" horiz-adv-x="375" d="M320 678 L272 678 L204 553 L204 432 L310 432 L310 556 L263 556 L320 678 L320 678 Z M170 678 L122 678 L54 553 L54 432 L161 432 L161 556 L113 556 L170 678 L170 678 Z " />
<glyph glyph-name="quotedblright" unicode="&#x201d;" horiz-adv-x="375" d="M320 546 L320 667 L214 667 L214 543 L261 543 L204 421 L253 421 L320 546 L320 546 Z M170 546 L170 667 L64 667 L64 543 L111 543 L54 421 L103 421 L170 546 L170 546 Z " />
<glyph glyph-name="quotedblbase" unicode="&#x201e;" horiz-adv-x="375" d="M320 3 L320 124 L214 124 L214 0 L261 0 L204 -122 L253 -122 L320 3 L320 3 Z M170 3 L170 124 L64 124 L64 0 L111 0 L54 -122 L103 -122 L170 3 L170 3 Z " />
<glyph glyph-name="dagger" unicode="&#x2020;" horiz-adv-x="511" d="M451 392 L451 479 L304 479 L304 667 L207 667 L207 479 L60 479 L60 392 L207 392 L207 -167 L304 -167 L304 392 L451 392 L451 392 Z " />
<glyph glyph-name="daggerdbl" unicode="&#x2021;" horiz-adv-x="511" d="M451 21 L451 108 L304 108 L304 392 L451 392 L451 479 L304 479 L304 667 L207 667 L207 479 L60 479 L60 392 L207 392 L207 108 L60 108 L60 21 L207 21 L207 -167 L304 -167 L304 21 L451 21 L451 21 Z " />
<glyph glyph-name="bullet" unicode="&#x2022;" horiz-adv-x="667" d="M471 340 C471 417 409 480 334 480 C258 480 196 417 196 340 C196 263 258 200 334 200 C409 200 471 263 471 340 L471 340 Z " />
<glyph glyph-name="ellipsis" unicode="&#x2026;" horiz-adv-x="716" d="M652 0 L652 126 L541 126 L541 0 L652 0 L652 0 Z M414 0 L414 126 L302 126 L302 0 L414 0 L414 0 Z M175 0 L175 126 L64 126 L64 0 L175 0 L175 0 Z " />
<glyph glyph-name="perthousand" unicode="&#x2030;" horiz-adv-x="988" d="M945 167 C945 273 895 339 814 339 C733 339 683 273 683 166 C683 60 733 -6 814 -6 C896 -6 945 60 945 167 L945 167 Z M537 667 L471 667 L146 0 L212 0 L537 667 L537 667 Z M305 500 C305 607 255 673 174 673 C92 672 42 607 42 500 C42 393 92 328 174 328 C255 328 305 393 305 500 L305 500 Z M639 167 C639 273 589 339 508 339 C426 339 376 273 376 166 C376 59 426 -6 508 -6 C589 -6 639 60 639 167 L639 167 Z M868 166 C868 90 851 55 814 55 C778 55 761 90 761 165 C761 243 777 278 814 278 C851 278 868 243 868 166 L868 166 Z M561 166 C561 90 544 55 507 55 C471 55 454 90 454 165 C454 243 471 278 507 278 C544 278 561 243 561 166 L561 166 Z M227 500 C227 423 211 389 174 389 C137 389 120 424 120 500 C120 576 137 611 174 611 C211 611 227 577 227 500 L227 500 Z " />
<glyph glyph-name="guilsinglleft" unicode="&#x2039;" horiz-adv-x="239" d="M195 96 L142 256 L195 416 L138 416 L44 256 L138 96 L195 96 L195 96 Z " />
<glyph glyph-name="guilsinglright" unicode="&#x203a;" horiz-adv-x="239" d="M195 256 L101 416 L44 416 L96 256 L44 96 L101 96 L195 256 L195 256 Z " />
<glyph glyph-name="fraction" unicode="&#x2044;" horiz-adv-x="85" d="M241 667 L170 667 L-156 0 L-85 0 L241 667 L241 667 Z " />
<glyph glyph-name="trademark" unicode="&#x2122;" horiz-adv-x="638" d="M593 287 L593 667 L504 667 L426 393 L350 667 L257 667 L257 287 L310 287 L310 611 L398 287 L444 287 L534 611 L534 287 L593 287 L593 287 Z M231 613 L231 667 L-1 667 L-1 613 L83 613 L83 287 L146 287 L146 613 L231 613 L231 613 Z " />
<glyph glyph-name="Omega" unicode="&#x2126;" horiz-adv-x="666" d="M638 0 L638 84 L475 84 C587 152 638 239 638 365 C638 545 506 683 333 683 C160 683 28 545 28 364 C28 272 58 197 118 139 C141 117 155 106 192 84 L28 84 L28 0 L293 0 L293 75 C181 138 125 229 125 351 C125 494 214 599 334 599 C450 599 541 491 541 353 C541 286 524 228 491 177 C467 141 437 113 397 89 C392 86 384 81 374 75 L374 0 L638 0 L638 0 Z " />
<glyph glyph-name="partialdiff" unicode="&#x2202;" horiz-adv-x="500" d="M473 254 C473 377 427 488 345 562 C277 623 203 653 81 668 L69 586 C108 581 124 578 148 570 C178 560 224 538 249 521 C280 500 310 469 329 440 C340 422 342 417 363 370 C342 393 335 399 321 408 C296 424 260 434 224 434 C108 434 17 338 17 216 C17 91 118 -10 243 -10 C381 -10 473 96 473 254 L473 254 Z M372 218 C372 136 317 74 244 74 C171 74 113 135 113 213 C113 290 167 351 237 355 C239 355 242 355 244 355 C319 355 372 298 372 218 L372 218 Z " />
<glyph glyph-name="Delta" unicode="&#x2206;" horiz-adv-x="667" d="M643 0 L382 667 L281 667 L23 0 L643 0 L643 0 Z M508 85 L157 85 L332 553 L508 85 L508 85 Z " />
<glyph glyph-name="product" unicode="&#x220f;" horiz-adv-x="711" d="M673 -250 L673 -166 L594 -166 L594 666 L673 666 L673 750 L38 750 L38 666 L118 666 L118 -166 L38 -166 L38 -250 L293 -250 L293 -166 L212 -166 L212 666 L499 666 L499 -166 L418 -166 L418 -250 L673 -250 L673 -250 Z " />
<glyph glyph-name="summation" unicode="&#x2211;" horiz-adv-x="667" d="M615 -250 L615 -15 L527 -15 L522 -166 L130 -166 L382 269 L131 666 L513 666 L522 516 L606 516 L606 750 L25 750 L25 656 L272 269 L25 -156 L25 -250 L615 -250 L615 -250 Z " />
<glyph glyph-name="radical" unicode="&#x221a;" horiz-adv-x="667" d="M667 743 L667 827 L396 827 L295 443 C277 373 265 328 261 309 C256 288 249 252 239 201 C230 153 229 148 224 120 L217 120 L215 134 L206 194 C202 222 197 250 194 261 L164 373 L0 373 L0 289 L87 289 L160 0 L280 0 L477 743 L667 743 L667 743 Z " />
<glyph glyph-name="infinity" unicode="&#x221e;" horiz-adv-x="666" d="M649 339 C649 432 585 497 494 497 C430 497 377 465 331 402 C285 466 233 497 173 497 C83 497 17 431 17 341 C17 248 81 183 172 183 C235 183 285 212 335 278 L341 270 C357 249 390 218 418 202 C440 190 467 183 495 183 C584 183 649 248 649 339 L649 339 Z M552 340 C552 298 522 267 480 267 C445 267 422 284 386 332 L380 340 C415 391 444 412 480 412 C521 412 552 381 552 340 L552 340 Z M286 339 L282 333 L281 332 C251 288 220 267 186 267 C145 267 114 298 114 340 C114 381 145 412 186 412 C222 412 251 392 286 339 L286 339 Z " />
<glyph glyph-name="integral" unicode="&#x222b;" horiz-adv-x="500" d="M423 739 C386 748 371 750 346 750 C278 750 227 717 212 664 C205 639 204 624 203 570 C203 549 202 534 202 524 L202 -41 C202 -83 202 -88 201 -104 C201 -117 199 -128 196 -136 C189 -155 169 -167 145 -167 C128 -167 120 -165 96 -156 L77 -239 C100 -246 118 -249 146 -249 C204 -249 246 -231 271 -197 C288 -174 296 -145 297 -101 C297 -81 298 -55 298 -24 L298 496 L298 553 C298 613 299 621 304 636 C311 655 330 667 355 667 C372 667 380 665 404 656 L423 739 L423 739 Z " />
<glyph glyph-name="approxequal" unicode="&#x2248;" horiz-adv-x="500" d="M491 471 L437 503 C409 456 389 441 353 441 C338 441 322 444 307 450 C297 454 281 461 260 470 C206 492 177 501 151 501 C88 501 48 466 9 377 L62 343 C88 392 110 410 143 410 C158 410 179 405 199 397 L252 375 C285 361 323 351 341 351 C383 351 425 371 452 405 C467 424 474 435 491 471 L491 471 Z M491 291 L437 323 C409 276 389 261 352 261 C338 261 322 264 307 270 C297 274 281 281 260 290 C206 312 177 321 151 321 C88 321 48 286 9 197 L62 162 C74 186 79 193 89 204 C103 221 124 230 143 230 C158 230 179 225 199 217 L252 195 C285 181 323 171 341 171 C383 171 425 191 452 225 C467 244 474 255 491 291 L491 291 Z " />
<glyph glyph-name="notequal" unicode="&#x2260;" horiz-adv-x="500" d="M467 202 L467 287 L266 287 L306 369 L467 369 L467 453 L344 453 L398 564 L323 564 L269 453 L33 453 L33 369 L230 369 L190 287 L34 287 L34 202 L152 202 L100 95 L175 95 L227 202 L467 202 L467 202 Z " />
<glyph glyph-name="lessequal" unicode="&#x2264;" horiz-adv-x="500" d="M467 148 L466 236 L133 388 L467 541 L467 629 L33 428 L33 349 L467 148 L467 148 Z M467 35 L467 119 L33 119 L33 35 L467 35 L467 35 Z " />
<glyph glyph-name="greaterequal" unicode="&#x2265;" horiz-adv-x="500" d="M467 348 L467 428 L33 629 L34 541 L367 388 L33 236 L33 148 L467 348 L467 348 Z M467 35 L467 119 L33 119 L33 35 L467 35 L467 35 Z " />
<glyph glyph-name="lozenge" unicode="&#x25ca;" horiz-adv-x="667" d="M593 334 L333 693 L74 334 L333 -26 L593 334 L593 334 Z M484 334 L333 126 L183 334 L333 541 L484 334 L484 334 Z " />
<glyph glyph-name="fi" unicode="&#xfb01;" horiz-adv-x="579" d="M520 0 L520 505 L417 505 L417 0 L520 0 L520 0 Z M355 429 L355 505 L60 505 L60 0 L162 0 L162 214 L315 214 L315 291 L162 291 L162 429 L355 429 L355 429 Z " />
<glyph glyph-name="fl" unicode="&#xfb02;" horiz-adv-x="681" d="M695 0 L695 81 L520 81 L520 505 L417 505 L417 0 L695 0 L695 0 Z M355 429 L355 505 L60 505 L60 0 L162 0 L162 214 L315 214 L315 291 L162 291 L162 429 L355 429 L355 429 Z " />
</font>
</svg>
